<?xml version="1.0" encoding="UTF-8" standalone="no"?>
<!DOCTYPE svg PUBLIC "-//W3C//DTD SVG 1.1//EN" "http://www.w3.org/Graphics/SVG/1.1/DTD/svg11.dtd">
<svg width="100%" height="100%" viewBox="0 0 800 800" version="1.1" xmlns="http://www.w3.org/2000/svg" xmlns:xlink="http://www.w3.org/1999/xlink" xml:space="preserve" xmlns:serif="http://www.serif.com/" style="fill-rule:evenodd;clip-rule:evenodd;stroke-linejoin:round;stroke-miterlimit:2;">
    <g transform="matrix(-1,0,0,1,800,0)">
        <path d="M133.333,166.667C114.924,166.667 100,181.591 100,200C100,218.409 114.924,233.333 133.333,233.333L666.667,233.333C685.077,233.333 700,218.409 700,200C700,181.591 685.077,166.667 666.667,166.667L133.333,166.667ZM233.333,400C233.333,381.59 248.257,366.667 266.667,366.667L666.667,366.667C685.077,366.667 700,381.59 700,400C700,418.41 685.077,433.333 666.667,433.333L266.667,433.333C248.257,433.333 233.333,418.41 233.333,400ZM433.333,600C433.333,581.59 448.257,566.667 466.667,566.667L666.667,566.667C685.077,566.667 700,581.59 700,600C700,618.41 685.077,633.333 666.667,633.333L466.667,633.333C448.257,633.333 433.333,618.41 433.333,600Z" style="fill:white;"/>
    </g>
</svg>
